# xmcd CD database file
#
# Track frame offsets:
#	150
#	21642
#	45380
#	72720
#	94876
#	125137
#	144491
#	163936
#	203438
#	224784
#	241944
#	256688
#	297330
#
# Disc length: 4215 seconds
#
# Revision: 0
# Processed by: cddbd v1.5PL3 Copyright (c) Steve Scherf et al.
# Submitted via: CDex 1.51
#
DISCID=d010750d
DTITLE=Viva Cubop 3 - Various
DYEAR=2003
DGENRE=Jazz
TTITLE0=Just Another Guarjia - Cuban Roots
TTITLE1=Kimbisa - Bobby Matos
TTITLE2=My Favourite Things - Francisco Aguabella
TTITLE3=Mallet Hands - Ray Armando
TTITLE4=I Don't Speak Spanish - John Santos - Bobby Matos
TTITLE5=Skin and Bones - Johnny Blas
TTITLE6=My Dream Boogaloo - Pucho and Latin Soul Bros
TTITLE7=Juan Jose - Papo Vazquez
TTITLE8=Barrets Bag - Har You Percussion Group
TTITLE9=Tresguanaco - Derf Reklaw
TTITLE10=Back to the Roots - Dave Pike
TTITLE11=42nd and Broadway - Snowboy
TTITLE12=Bemba Colora - Jack Costanzo
EXTD=YEAR: 2003
EXTT0=
EXTT1=
EXTT2=
EXTT3=
EXTT4=
EXTT5=
EXTT6=
EXTT7=
EXTT8=
EXTT9=
EXTT10=
EXTT11=
EXTT12=
PLAYORDER=
